<svg width="256" height="256" viewBox="0 0 256 256" fill="none" xmlns="http://www.w3.org/2000/svg" role="img" aria-labelledby="title desc">
  <title id="title">Pig downloading video</title>
  <desc id="desc">A cute pig holding a video player with a download arrow</desc>

  <!-- Background -->
  <rect x="4" y="4" width="248" height="248" rx="48" fill="#111827"/>
  <rect x="4" y="4" width="248" height="248" rx="48" fill="url(#bgGrad)" opacity="0.6"/>
  
  <!-- Pig body shadow -->
  <ellipse cx="128" cy="186" rx="60" ry="16" fill="#0B1220" opacity="0.35"/>

  <!-- Pig head -->
  <circle cx="128" cy="96" r="46" fill="#F9A8D4" stroke="#F472B6" stroke-width="3"/>

  <!-- Ears -->
  <path d="M92 76 C86 58, 104 56, 110 72 C104 70, 98 72, 92 76Z" fill="#F9A8D4" stroke="#F472B6" stroke-width="3"/>
  <path d="M164 76 C170 58, 152 56, 146 72 C152 70, 158 72, 164 76Z" fill="#F9A8D4" stroke="#F472B6" stroke-width="3"/>

  <!-- Eyes -->
  <circle cx="112" cy="98" r="5" fill="#1F2937"/>
  <circle cx="144" cy="98" r="5" fill="#1F2937"/>

  <!-- Snout -->
  <ellipse cx="128" cy="115" rx="22" ry="16" fill="#FDBBD9" stroke="#F472B6" stroke-width="2"/>
  <circle cx="120" cy="115" r="3" fill="#9B1C68"/>
  <circle cx="136" cy="115" r="3" fill="#9B1C68"/>

  <!-- Hooves / hands -->
  <ellipse cx="98" cy="150" rx="10" ry="8" fill="#F9A8D4" stroke="#F472B6" stroke-width="2"/>
  <ellipse cx="158" cy="150" rx="10" ry="8" fill="#F9A8D4" stroke="#F472B6" stroke-width="2"/>

  <!-- Video card held by the pig -->
  <g transform="translate(64,150)">
    <rect x="0" y="0" width="128" height="72" rx="10" fill="#111827" stroke="#334155" stroke-width="2"/>
    <!-- top bar -->
    <rect x="0" y="0" width="128" height="16" rx="10" fill="#0B1220"/>
    <circle cx="10" cy="8" r="3" fill="#EF4444"/>
    <circle cx="22" cy="8" r="3" fill="#F59E0B"/>
    <circle cx="34" cy="8" r="3" fill="#22C55E"/>

    <!-- play button -->
    <circle cx="40" cy="40" r="16" fill="#1F2937" stroke="#475569" stroke-width="2"/>
    <path d="M36 32 L36 48 L48 40 Z" fill="#93C5FD"/>

    <!-- download arrow -->
    <g transform="translate(74,22)">
      <rect x="0" y="0" width="36" height="36" rx="8" fill="#0EA5E9"/>
      <path d="M18 7 V21" stroke="#FFFFFF" stroke-width="3" stroke-linecap="round"/>
      <path d="M11 16 L18 23 L25 16" stroke="#FFFFFF" stroke-width="3" stroke-linecap="round" stroke-linejoin="round"/>
      <rect x="9" y="26" width="18" height="3" rx="1.5" fill="#FFFFFF" opacity="0.9"/>
    </g>
  </g>

  <!-- Fore hooves overlapping the card -->
  <ellipse cx="96" cy="158" rx="12" ry="9" fill="#F9A8D4" stroke="#F472B6" stroke-width="2"/>
  <ellipse cx="160" cy="158" rx="12" ry="9" fill="#F9A8D4" stroke="#F472B6" stroke-width="2"/>

  <!-- Gradients -->
  <defs>
    <linearGradient id="bgGrad" x1="0" y1="0" x2="256" y2="256" gradientUnits="userSpaceOnUse">
      <stop offset="0" stop-color="#0EA5E9" stop-opacity="0.25"/>
      <stop offset="1" stop-color="#A855F7" stop-opacity="0.25"/>
    </linearGradient>
  </defs>
</svg>
